#!OML:ASF F:\VICON\USERDATA\INSTALL\rory3\rory3.ASF
:FULLY-SPECIFIED
:DEGREES
2041
root 4.76039 17.7115 -1.68428 155.653 62.5448 135.558
lowerback 15.6588 2.6189 3.34376
upperback 7.38852 5.05138 9.06511
thorax -1.45437 2.8068 6.88564
lowerneck -8.97679 -15.8906 -9.33192
upperneck 26.4866 -21.4769 8.77965
head 12.2344 -9.20919 1.69654
rclavicle -1.04958e-013 -1.46306e-013
rhumerus 16.333 3.99638 -94.3986
rradius 29.1925
rwrist -9.28834
rhand -4.37252 -20.9507
rfingers 7.12502
rthumb 21.3962 -49.7893
lclavicle -1.04958e-013 -1.46306e-013
lhumerus -16.239 -13.3624 89.0243
lradius 53.0207
lwrist 74.497
lhand -30.1457 48.8702
lfingers 7.12502
lthumb -3.45812 -1001.18
rfemur -41.4019 -5.72802 3.20646
rtibia 47.6332
rfoot -24.366 -10.2682
rtoes 16.4305
lfemur -22.4421 -9.76183 -23.2048
ltibia 19.0031
lfoot 9.0336 -24.7376
ltoes -3.635
2042
root 4.77936 17.7197 -1.66571 155.673 62.4319 135.45
lowerback 15.6151 2.53447 3.2226
upperback 7.36698 4.92039 9.05948
thorax -1.45001 2.73916 6.974
lowerneck -9.17469 -15.7666 -9.19913
upperneck 26.7825 -21.2685 8.52832
head 12.3169 -9.107 1.61155
rclavicle 3.49861e-014 6.36111e-015
rhumerus 16.1992 3.78375 -94.2929
rradius 29.3843
rwrist -9.38135
rhand -4.44676 -21.0797
rfingers 7.12502
rthumb 21.3249 -49.9264
lclavicle 3.49861e-014 6.36111e-015
lhumerus -16.3763 -13.724 89.3727
lradius 53.0286
lwrist 73.7618
lhand -29.0288 49.7649
lfingers 7.12502
lthumb -2.37952 -1000.27
rfemur -41.3638 -5.69121 3.14782
rtibia 47.4627
rfoot -24.3483 -10.3941
rtoes 16.312
lfemur -22.472 -9.71273 -23.2715
ltibia 18.9415
lfoot 8.80752 -24.1702
ltoes -5.03387
2043
root 4.79749 17.7287 -1.64856 155.961 62.3426 135.696
lowerback 15.611 2.40102 3.25433
upperback 7.34583 4.75746 9.08265
thorax -1.45319 2.66063 7.01051
lowerneck -9.2976 -15.6484 -9.07573
upperneck 27.0143 -21.0699 8.2957
head 12.3649 -9.01576 1.53876
rclavicle 3.49861e-014 7.63333e-014
rhumerus 16.0872 3.21247 -94.2785
rradius 29.5473
rwrist -9.25
rhand -4.3796 -20.886
rfingers 7.12502
rthumb 21.3894 -49.7254
lclavicle 3.49861e-014 7.63333e-014
lhumerus -16.4631 -14.2394 89.808
lradius 53.1407
lwrist 73.8532
lhand -29.2775 49.8906
lfingers 7.12502
lthumb -2.6197 -1000.15
rfemur -41.2538 -5.7359 3.27964
rtibia 47.2633
rfoot -24.2907 -10.5199
rtoes 16.0277
lfemur -22.4309 -9.55203 -23.2533
ltibia 18.9072
lfoot 8.14092 -23.7366
ltoes -7.59075
2044
root 4.81542 17.7419 -1.63312 156.46 62.4478 136.154
lowerback 15.5399 2.29256 3.45739
upperback 7.35008 4.64637 9.12276
thorax -1.38771 2.61159 6.96208
lowerneck -9.3387 -15.5636 -9.06457
upperneck 27.1338 -20.9505 8.26601
head 12.4032 -8.95713 1.54434
rclavicle -1.59028e-014 -4.77083e-014
rhumerus 16.0622 2.57266 -94.1524
rradius 29.6481
rwrist -9.17904
rhand -4.21941 -20.5617
rfingers 7.12502
rthumb 21.5433 -49.3836
lclavicle -1.59028e-014 -4.77083e-014
lhumerus -16.4608 -14.8339 90.2965
lradius 53.3166
lwrist 73.9902
lhand -30.0066 49.8889
lfingers 7.12502
lthumb -3.32384 -1000.16
rfemur -41.2016 -5.78844 3.64354
rtibia 47.0425
rfoot -24.2764 -10.4709
rtoes 16.162
lfemur -22.4131 -9.51901 -22.9974
ltibia 18.9479
lfoot 7.26266 -22.9968
ltoes -10.7162
2045
root 4.83126 17.7576 -1.61233 156.566 62.6065 136.269
lowerback 15.6632 2.24899 3.50285
upperback 7.316 4.60749 9.11012
thorax -1.48133 2.59279 6.92237
lowerneck -9.10489 -15.4836 -9.37441
upperneck 27.1464 -20.8968 8.68296
head 12.4542 -8.92002 1.76042
rclavicle -1.36764e-013 -5.40694e-014
rhumerus 15.9264 2.02347 -93.8299
rradius 29.8328
rwrist -9.39871
rhand -4.58223 -20.3586
rfingers 7.12502
rthumb 21.1948 -49.22
lclavicle -1.36764e-013 -5.40694e-014
lhumerus -16.5719 -15.6497 90.8963
lradius 53.5238
lwrist 73.4202
lhand -29.4758 50.469
lfingers 7.12502
lthumb -2.81122 -999.57
rfemur -41.1054 -5.83021 3.95974
rtibia 46.815
rfoot -24.1796 -10.39
rtoes 16.1415
lfemur -22.2941 -9.35592 -22.8172
ltibia 19.0551
lfoot 6.53209 -22.0732
ltoes -12.9108
2046
root 4.84027 17.7641 -1.60257 156.897 62.5459 136.405
lowerback 15.5949 2.13584 3.55443
upperback 7.18201 4.46096 9.08282
thorax -1.56781 2.518 6.88721
lowerneck -8.87174 -15.4619 -9.61157
upperneck 27.1779 -20.8876 8.90669
head 12.4814 -8.91797 1.89081
rclavicle 3.81667e-014 1.145e-013
rhumerus 15.7476 1.37412 -93.3676
rradius 29.9966
rwrist -9.46276
rhand -5.08328 -19.8717
rfingers 7.12502
rthumb 20.7134 -48.7863
lclavicle 3.81667e-014 1.145e-013
lhumerus -16.7187 -16.7706 91.6657
lradius 53.7021
lwrist 72.8951
lhand -28.5816 50.5257
lfingers 7.12502
lthumb -1.94764 -999.503
rfemur -41.2068 -6.06894 4.11151
rtibia 46.5802
rfoot -23.9619 -10.4371
rtoes 15.9188
lfemur -22.4491 -9.68536 -22.7091
ltibia 19.2002
lfoot 5.44781 -20.914
ltoes -16.1656
